<?xml version="1.0" standalone="no"?>
<!DOCTYPE svg PUBLIC "-//W3C//DTD SVG 20010904//EN"
 "http://www.w3.org/TR/2001/REC-SVG-20010904/DTD/svg10.dtd">
<svg version="1.0" xmlns="http://www.w3.org/2000/svg"
 width="71.000000pt" height="29.000000pt" viewBox="0 0 71.000000 29.000000"
 preserveAspectRatio="xMidYMid meet">

<g transform="translate(0.000000,29.000000) scale(0.100000,-0.100000)"
fill="#000000" stroke="none">
<path d="M62 163 l2 -68 3 62 4 62 57 4 57 3 -62 2 -63 2 2 -67z"/>
<path d="M94 187 c-3 -8 -4 -41 -2 -73 l3 -59 63 -3 63 -3 -3 73 -3 73 -58 3
c-42 2 -59 -1 -63 -11z m116 -62 l0 -65 -50 0 -50 0 0 65 0 65 50 0 50 0 0
-65z"/>
</g>
</svg>
